<svg xmlns="http://www.w3.org/2000/svg" viewBox="0 0 34.29 34.29"><defs><style>.cls-1{fill:#fff;opacity:0.8;}</style></defs><g id="Layer_2" data-name="Layer 2"><g id="Layer_1-2" data-name="Layer 1"><path class="cls-1" d="M31.44,15.55a9.8,9.8,0,0,1-3,7,9.44,9.44,0,0,1-3.36,2.15,11.35,11.35,0,0,1-1.36.45c-.24.06-.47.1-.7.14h0a25.73,25.73,0,0,1-2.83.14l-1.14-2.53L17.57,19.6h0l-1.12-2.51-.34-.77L13.24,10h0l-.39.94-2.56,6.2h5.33l.46,1.05.66,1.46H9.16L6.69,25.45H3.79l7.6-17.81.4-.92h0l.47-1.1h2L16.07,9.7h0l5.85,13.11.76-.11.32-.07a8.39,8.39,0,0,0,2-.74,7.24,7.24,0,0,0,1.44-1.1,7.4,7.4,0,0,0,2.09-5.4,6.83,6.83,0,0,0-2.15-5.22,7.23,7.23,0,0,0-1.82-1.24,7.59,7.59,0,0,0-2-.63,18.91,18.91,0,0,0-3-.16H16.19L15.06,5.61h4.85a14.08,14.08,0,0,1,6.4,1.21,9.2,9.2,0,0,1,3.74,3.58A10,10,0,0,1,31.44,15.55ZM17.15,0A17.15,17.15,0,1,0,34.29,17.15,17.15,17.15,0,0,0,17.15,0Z"/></g></g></svg>